<svg xmlns="http://www.w3.org/2000/svg" xmlns:xlink="http://www.w3.org/1999/xlink" width="500" zoomAndPan="magnify" viewBox="0 0 375 374.999991" height="500" preserveAspectRatio="xMidYMid meet" version="1.0"><defs><g/><clipPath id="2662590a92"><path d="M 22.800781 130.589844 L 130.171875 130.589844 L 130.171875 237.960938 L 22.800781 237.960938 Z M 22.800781 130.589844 " clip-rule="nonzero"/></clipPath><clipPath id="751c399979"><path d="M 76.484375 130.589844 C 46.835938 130.589844 22.800781 154.625 22.800781 184.277344 C 22.800781 213.925781 46.835938 237.960938 76.484375 237.960938 C 106.136719 237.960938 130.171875 213.925781 130.171875 184.277344 C 130.171875 154.625 106.136719 130.589844 76.484375 130.589844 Z M 76.484375 130.589844 " clip-rule="nonzero"/></clipPath><clipPath id="2b5c74532c"><path d="M 22.800781 154.5 L 108 154.5 L 108 244.476562 L 22.800781 244.476562 Z M 22.800781 154.5 " clip-rule="nonzero"/></clipPath><clipPath id="84d424f87a"><path d="M 45 155 L 108.324219 155 L 108.324219 244.476562 L 45 244.476562 Z M 45 155 " clip-rule="nonzero"/></clipPath><clipPath id="30f26835e0"><path d="M 113.234375 183.214844 L 121.566406 183.214844 L 121.566406 191.546875 L 113.234375 191.546875 Z M 113.234375 183.214844 " clip-rule="nonzero"/></clipPath><clipPath id="db65150f6d"><path d="M 42.695312 158.09375 L 56.023438 158.09375 L 56.023438 171.421875 L 42.695312 171.421875 Z M 42.695312 158.09375 " clip-rule="nonzero"/></clipPath></defs><g fill="#ff3131" fill-opacity="1"><g transform="translate(143.687865, 204.579036)"><g><path d="M 17.4375 0.484375 C 15.5 0.484375 13.769531 0.046875 12.25 -0.828125 C 10.726562 -1.703125 9.53125 -2.898438 8.65625 -4.421875 L 8.65625 0 L 2.96875 0 L 2.96875 -35.46875 L 9.46875 -35.46875 L 9.46875 -21 C 10.382812 -22.519531 11.578125 -23.71875 13.046875 -24.59375 C 14.523438 -25.46875 16.25 -25.90625 18.21875 -25.90625 C 19.875 -25.90625 21.378906 -25.554688 22.734375 -24.859375 C 24.097656 -24.160156 25.273438 -23.195312 26.265625 -21.96875 C 27.253906 -20.738281 28.015625 -19.328125 28.546875 -17.734375 C 29.078125 -16.148438 29.34375 -14.453125 29.34375 -12.640625 C 29.34375 -10.816406 29.039062 -9.113281 28.4375 -7.53125 C 27.84375 -5.945312 27.007812 -4.546875 25.9375 -3.328125 C 24.875 -2.109375 23.617188 -1.164062 22.171875 -0.5 C 20.734375 0.15625 19.15625 0.484375 17.4375 0.484375 Z M 15.640625 -5.046875 C 16.679688 -5.046875 17.628906 -5.25 18.484375 -5.65625 C 19.347656 -6.0625 20.09375 -6.601562 20.71875 -7.28125 C 21.351562 -7.96875 21.835938 -8.769531 22.171875 -9.6875 C 22.515625 -10.613281 22.6875 -11.578125 22.6875 -12.578125 C 22.6875 -13.972656 22.40625 -15.257812 21.84375 -16.4375 C 21.28125 -17.625 20.503906 -18.570312 19.515625 -19.28125 C 18.523438 -20 17.363281 -20.359375 16.03125 -20.359375 C 15.09375 -20.359375 14.191406 -20.140625 13.328125 -19.703125 C 12.472656 -19.265625 11.710938 -18.671875 11.046875 -17.921875 C 10.390625 -17.179688 9.863281 -16.34375 9.46875 -15.40625 L 9.46875 -9.328125 C 9.664062 -8.679688 9.984375 -8.097656 10.421875 -7.578125 C 10.859375 -7.054688 11.367188 -6.609375 11.953125 -6.234375 C 12.535156 -5.867188 13.140625 -5.578125 13.765625 -5.359375 C 14.398438 -5.148438 15.023438 -5.046875 15.640625 -5.046875 Z M 15.640625 -5.046875 "/></g></g></g><g fill="#ff3131" fill-opacity="1"><g transform="translate(175.460446, 204.579036)"><g><path d="M 14.765625 0.484375 C 12.734375 0.484375 10.890625 0.132812 9.234375 -0.5625 C 7.578125 -1.257812 6.164062 -2.210938 5 -3.421875 C 3.832031 -4.640625 2.929688 -6.035156 2.296875 -7.609375 C 1.671875 -9.179688 1.359375 -10.835938 1.359375 -12.578125 C 1.359375 -15.015625 1.898438 -17.234375 2.984375 -19.234375 C 4.066406 -21.242188 5.617188 -22.859375 7.640625 -24.078125 C 9.671875 -25.296875 12.066406 -25.90625 14.828125 -25.90625 C 17.609375 -25.90625 19.984375 -25.296875 21.953125 -24.078125 C 23.929688 -22.859375 25.445312 -21.253906 26.5 -19.265625 C 27.5625 -17.273438 28.09375 -15.128906 28.09375 -12.828125 C 28.09375 -12.441406 28.070312 -12.046875 28.03125 -11.640625 C 28 -11.234375 27.96875 -10.898438 27.9375 -10.640625 L 8.265625 -10.640625 C 8.390625 -9.347656 8.765625 -8.210938 9.390625 -7.234375 C 10.023438 -6.265625 10.835938 -5.53125 11.828125 -5.03125 C 12.816406 -4.53125 13.878906 -4.28125 15.015625 -4.28125 C 16.304688 -4.28125 17.523438 -4.59375 18.671875 -5.21875 C 19.828125 -5.851562 20.617188 -6.6875 21.046875 -7.71875 L 26.625 -6.171875 C 26.007812 -4.878906 25.125 -3.726562 23.96875 -2.71875 C 22.820312 -1.71875 21.472656 -0.929688 19.921875 -0.359375 C 18.367188 0.203125 16.648438 0.484375 14.765625 0.484375 Z M 8.109375 -14.765625 L 21.4375 -14.765625 C 21.300781 -16.066406 20.929688 -17.191406 20.328125 -18.140625 C 19.734375 -19.097656 18.945312 -19.84375 17.96875 -20.375 C 17 -20.914062 15.914062 -21.1875 14.71875 -21.1875 C 13.550781 -21.1875 12.488281 -20.914062 11.53125 -20.375 C 10.582031 -19.84375 9.804688 -19.097656 9.203125 -18.140625 C 8.609375 -17.191406 8.242188 -16.066406 8.109375 -14.765625 Z M 8.109375 -14.765625 "/></g></g></g><g fill="#ff3131" fill-opacity="1"><g transform="translate(205.532669, 204.579036)"><g><path d="M 1.21875 -7.53125 C 1.21875 -9.1875 1.675781 -10.632812 2.59375 -11.875 C 3.519531 -13.125 4.804688 -14.085938 6.453125 -14.765625 C 8.109375 -15.453125 10.007812 -15.796875 12.15625 -15.796875 C 13.21875 -15.796875 14.300781 -15.710938 15.40625 -15.546875 C 16.507812 -15.390625 17.460938 -15.128906 18.265625 -14.765625 L 18.265625 -16.140625 C 18.265625 -17.753906 17.785156 -19 16.828125 -19.875 C 15.878906 -20.75 14.460938 -21.1875 12.578125 -21.1875 C 11.191406 -21.1875 9.863281 -20.941406 8.59375 -20.453125 C 7.332031 -19.972656 6.003906 -19.257812 4.609375 -18.3125 L 2.53125 -22.59375 C 4.207031 -23.695312 5.925781 -24.523438 7.6875 -25.078125 C 9.457031 -25.628906 11.316406 -25.90625 13.265625 -25.90625 C 16.890625 -25.90625 19.710938 -24.992188 21.734375 -23.171875 C 23.765625 -21.359375 24.78125 -18.769531 24.78125 -15.40625 L 24.78125 -7.296875 C 24.78125 -6.609375 24.898438 -6.117188 25.140625 -5.828125 C 25.390625 -5.535156 25.789062 -5.359375 26.34375 -5.296875 L 26.34375 0 C 25.757812 0.09375 25.226562 0.171875 24.75 0.234375 C 24.28125 0.304688 23.882812 0.34375 23.5625 0.34375 C 22.269531 0.34375 21.289062 0.0507812 20.625 -0.53125 C 19.957031 -1.113281 19.546875 -1.828125 19.390625 -2.671875 L 19.25 -3.984375 C 18.144531 -2.554688 16.765625 -1.453125 15.109375 -0.671875 C 13.460938 0.0976562 11.78125 0.484375 10.0625 0.484375 C 8.375 0.484375 6.859375 0.132812 5.515625 -0.5625 C 4.171875 -1.257812 3.117188 -2.210938 2.359375 -3.421875 C 1.597656 -4.640625 1.21875 -6.007812 1.21875 -7.53125 Z M 17.0625 -6.21875 C 17.414062 -6.601562 17.703125 -6.988281 17.921875 -7.375 C 18.148438 -7.769531 18.265625 -8.128906 18.265625 -8.453125 L 18.265625 -11.03125 C 17.492188 -11.351562 16.65625 -11.601562 15.75 -11.78125 C 14.84375 -11.957031 13.984375 -12.046875 13.171875 -12.046875 C 11.484375 -12.046875 10.097656 -11.679688 9.015625 -10.953125 C 7.929688 -10.222656 7.390625 -9.257812 7.390625 -8.0625 C 7.390625 -7.414062 7.566406 -6.800781 7.921875 -6.21875 C 8.273438 -5.632812 8.789062 -5.164062 9.46875 -4.8125 C 10.15625 -4.457031 10.96875 -4.28125 11.90625 -4.28125 C 12.875 -4.28125 13.828125 -4.460938 14.765625 -4.828125 C 15.710938 -5.203125 16.476562 -5.664062 17.0625 -6.21875 Z M 17.0625 -6.21875 "/></g></g></g><g fill="#ff3131" fill-opacity="1"><g transform="translate(234.390356, 204.579036)"><g><path d="M 18.125 -19.828125 C 16.144531 -19.828125 14.378906 -19.445312 12.828125 -18.6875 C 11.273438 -17.925781 10.15625 -16.832031 9.46875 -15.40625 L 9.46875 0 L 2.96875 0 L 2.96875 -25.46875 L 8.9375 -25.46875 L 8.9375 -20.015625 C 9.84375 -21.765625 10.992188 -23.140625 12.390625 -24.140625 C 13.785156 -25.148438 15.257812 -25.703125 16.8125 -25.796875 C 17.164062 -25.796875 17.441406 -25.796875 17.640625 -25.796875 C 17.835938 -25.796875 18 -25.78125 18.125 -25.75 Z M 18.125 -19.828125 "/></g></g></g><g fill="#ff3131" fill-opacity="1"><g transform="translate(254.163303, 204.579036)"><g><path d="M 17.4375 0.484375 C 15.5 0.484375 13.769531 0.046875 12.25 -0.828125 C 10.726562 -1.703125 9.53125 -2.898438 8.65625 -4.421875 L 8.65625 0 L 2.96875 0 L 2.96875 -35.46875 L 9.46875 -35.46875 L 9.46875 -21 C 10.382812 -22.519531 11.578125 -23.71875 13.046875 -24.59375 C 14.523438 -25.46875 16.25 -25.90625 18.21875 -25.90625 C 19.875 -25.90625 21.378906 -25.554688 22.734375 -24.859375 C 24.097656 -24.160156 25.273438 -23.195312 26.265625 -21.96875 C 27.253906 -20.738281 28.015625 -19.328125 28.546875 -17.734375 C 29.078125 -16.148438 29.34375 -14.453125 29.34375 -12.640625 C 29.34375 -10.816406 29.039062 -9.113281 28.4375 -7.53125 C 27.84375 -5.945312 27.007812 -4.546875 25.9375 -3.328125 C 24.875 -2.109375 23.617188 -1.164062 22.171875 -0.5 C 20.734375 0.15625 19.15625 0.484375 17.4375 0.484375 Z M 15.640625 -5.046875 C 16.679688 -5.046875 17.628906 -5.25 18.484375 -5.65625 C 19.347656 -6.0625 20.09375 -6.601562 20.71875 -7.28125 C 21.351562 -7.96875 21.835938 -8.769531 22.171875 -9.6875 C 22.515625 -10.613281 22.6875 -11.578125 22.6875 -12.578125 C 22.6875 -13.972656 22.40625 -15.257812 21.84375 -16.4375 C 21.28125 -17.625 20.503906 -18.570312 19.515625 -19.28125 C 18.523438 -20 17.363281 -20.359375 16.03125 -20.359375 C 15.09375 -20.359375 14.191406 -20.140625 13.328125 -19.703125 C 12.472656 -19.265625 11.710938 -18.671875 11.046875 -17.921875 C 10.390625 -17.179688 9.863281 -16.34375 9.46875 -15.40625 L 9.46875 -9.328125 C 9.664062 -8.679688 9.984375 -8.097656 10.421875 -7.578125 C 10.859375 -7.054688 11.367188 -6.609375 11.953125 -6.234375 C 12.535156 -5.867188 13.140625 -5.578125 13.765625 -5.359375 C 14.398438 -5.148438 15.023438 -5.046875 15.640625 -5.046875 Z M 15.640625 -5.046875 "/></g></g></g><g fill="#ff3131" fill-opacity="1"><g transform="translate(285.935876, 204.579036)"><g><path d="M 26.625 0 L 20.125 0 L 20.125 -14.28125 C 20.125 -16.320312 19.765625 -17.8125 19.046875 -18.75 C 18.335938 -19.695312 17.347656 -20.171875 16.078125 -20.171875 C 15.203125 -20.171875 14.316406 -19.941406 13.421875 -19.484375 C 12.535156 -19.035156 11.738281 -18.410156 11.03125 -17.609375 C 10.320312 -16.816406 9.800781 -15.90625 9.46875 -14.875 L 9.46875 0 L 2.96875 0 L 2.96875 -25.46875 L 8.84375 -25.46875 L 8.84375 -20.75 C 9.488281 -21.851562 10.3125 -22.785156 11.3125 -23.546875 C 12.320312 -24.304688 13.484375 -24.890625 14.796875 -25.296875 C 16.109375 -25.703125 17.492188 -25.90625 18.953125 -25.90625 C 20.535156 -25.90625 21.835938 -25.617188 22.859375 -25.046875 C 23.878906 -24.484375 24.65625 -23.722656 25.1875 -22.765625 C 25.726562 -21.804688 26.101562 -20.726562 26.3125 -19.53125 C 26.519531 -18.332031 26.625 -17.117188 26.625 -15.890625 Z M 26.625 0 "/></g></g></g><g fill="#ff3131" fill-opacity="1"><g transform="translate(316.251003, 204.579036)"><g><path d="M 17.4375 0.484375 C 15.5 0.484375 13.769531 0.046875 12.25 -0.828125 C 10.726562 -1.703125 9.53125 -2.898438 8.65625 -4.421875 L 8.65625 0 L 2.96875 0 L 2.96875 -35.46875 L 9.46875 -35.46875 L 9.46875 -21 C 10.382812 -22.519531 11.578125 -23.71875 13.046875 -24.59375 C 14.523438 -25.46875 16.25 -25.90625 18.21875 -25.90625 C 19.875 -25.90625 21.378906 -25.554688 22.734375 -24.859375 C 24.097656 -24.160156 25.273438 -23.195312 26.265625 -21.96875 C 27.253906 -20.738281 28.015625 -19.328125 28.546875 -17.734375 C 29.078125 -16.148438 29.34375 -14.453125 29.34375 -12.640625 C 29.34375 -10.816406 29.039062 -9.113281 28.4375 -7.53125 C 27.84375 -5.945312 27.007812 -4.546875 25.9375 -3.328125 C 24.875 -2.109375 23.617188 -1.164062 22.171875 -0.5 C 20.734375 0.15625 19.15625 0.484375 17.4375 0.484375 Z M 15.640625 -5.046875 C 16.679688 -5.046875 17.628906 -5.25 18.484375 -5.65625 C 19.347656 -6.0625 20.09375 -6.601562 20.71875 -7.28125 C 21.351562 -7.96875 21.835938 -8.769531 22.171875 -9.6875 C 22.515625 -10.613281 22.6875 -11.578125 22.6875 -12.578125 C 22.6875 -13.972656 22.40625 -15.257812 21.84375 -16.4375 C 21.28125 -17.625 20.503906 -18.570312 19.515625 -19.28125 C 18.523438 -20 17.363281 -20.359375 16.03125 -20.359375 C 15.09375 -20.359375 14.191406 -20.140625 13.328125 -19.703125 C 12.472656 -19.265625 11.710938 -18.671875 11.046875 -17.921875 C 10.390625 -17.179688 9.863281 -16.34375 9.46875 -15.40625 L 9.46875 -9.328125 C 9.664062 -8.679688 9.984375 -8.097656 10.421875 -7.578125 C 10.859375 -7.054688 11.367188 -6.609375 11.953125 -6.234375 C 12.535156 -5.867188 13.140625 -5.578125 13.765625 -5.359375 C 14.398438 -5.148438 15.023438 -5.046875 15.640625 -5.046875 Z M 15.640625 -5.046875 "/></g></g></g><g clip-path="url(#2662590a92)"><g clip-path="url(#751c399979)"><path fill="#ff3131" d="M 22.800781 130.589844 L 130.171875 130.589844 L 130.171875 237.960938 L 22.800781 237.960938 Z M 22.800781 130.589844 " fill-opacity="1" fill-rule="nonzero"/></g></g><g clip-path="url(#2b5c74532c)"><path fill="#ffffff" d="M 25.589844 220.859375 L 25.589844 226.128906 C 25.589844 234.136719 31.839844 242.753906 39.730469 243.386719 C 41.132812 243.859375 42.613281 244.171875 44.144531 244.296875 L 44.144531 244.367188 L 80.164062 244.367188 L 80.164062 243.828125 C 80.164062 243.203125 80.101562 242.59375 79.988281 242.003906 C 81.21875 241.617188 82.425781 241.164062 83.601562 240.640625 C 86.3125 243.003906 89.65625 244.394531 93.273438 244.367188 L 107.816406 244.367188 C 107.816406 240.445312 105.152344 236.9375 101.867188 236.9375 L 101.796875 236.9375 L 101.796875 222.671875 C 104.269531 217.59375 105.667969 211.949219 105.667969 206.175781 L 105.667969 178.25 L 103.292969 161.953125 C 105.140625 161.847656 106.605469 160.320312 106.605469 158.449219 C 106.605469 156.507812 105.03125 154.933594 103.089844 154.933594 C 101.648438 154.933594 100.410156 155.800781 99.867188 157.042969 C 98.332031 155.484375 96.3125 154.5 94.109375 154.5 L 86.078125 154.5 C 83.714844 154.5 81.605469 155.664062 79.996094 157.390625 C 79.582031 155.90625 78.226562 154.8125 76.609375 154.8125 C 74.667969 154.8125 73.09375 156.386719 73.09375 158.328125 C 73.09375 160.269531 74.667969 161.84375 76.609375 161.84375 C 76.621094 161.84375 76.632812 161.84375 76.644531 161.84375 L 73.09375 178.25 C 61.261719 178.25 38.941406 199.179688 29.730469 211.519531 C 29.1875 211.324219 28.605469 211.214844 28 211.214844 C 25.167969 211.214844 22.875 213.507812 22.875 216.335938 C 22.875 218.296875 23.976562 220 25.589844 220.859375 Z M 25.589844 220.859375 " fill-opacity="1" fill-rule="nonzero"/></g><path fill="#ffffff" d="M 105.667969 195.113281 L 105.667969 178.25 L 73.09375 178.25 Z M 66.046875 173.507812 L 69.027344 170.527344 L 73.09375 178.25 Z M 64.996094 179.929688 L 64.996094 175.714844 L 73.332031 178.296875 Z M 64.996094 179.929688 " fill-opacity="1" fill-rule="nonzero"/><path fill="#232c33" d="M 103.089844 193.78125 L 105.667969 195.113281 L 105.667969 178.25 L 103.089844 178.25 Z M 97.601562 190.9375 L 97.601562 178.25 L 100.183594 178.25 L 100.183594 192.273438 Z M 92.117188 188.097656 L 92.117188 178.25 L 94.695312 178.25 L 94.695312 189.433594 Z M 86.921875 185.410156 L 86.921875 178.25 L 89.5 178.25 L 89.5 186.746094 Z M 81.4375 182.570312 L 81.4375 178.25 L 84.015625 178.25 L 84.015625 183.902344 Z M 75.949219 179.730469 L 75.949219 178.25 L 78.527344 178.25 L 78.527344 181.0625 Z M 75.949219 179.730469 " fill-opacity="1" fill-rule="nonzero"/><g clip-path="url(#84d424f87a)"><path fill="#232c33" d="M 85.949219 169.988281 C 85.949219 170.839844 86.757812 171.585938 87.683594 171.585938 C 88.117188 171.585938 89.234375 171.351562 89.894531 170.851562 C 90.558594 171.351562 91.671875 171.585938 92.109375 171.585938 C 93.03125 171.585938 93.84375 170.839844 93.84375 169.988281 C 93.84375 169.703125 93.613281 169.472656 93.328125 169.472656 C 93.042969 169.472656 92.8125 169.703125 92.8125 169.988281 C 92.8125 170.269531 92.457031 170.554688 92.109375 170.554688 C 91.609375 170.554688 90.578125 170.179688 90.410156 169.941406 C 90.40625 169.929688 90.40625 169.921875 90.402344 169.910156 C 90.402344 169.894531 90.398438 169.878906 90.394531 169.867188 C 90.390625 169.847656 90.386719 169.832031 90.378906 169.8125 C 90.378906 169.808594 90.375 169.804688 90.375 169.800781 L 91.980469 168.011719 C 92.109375 167.867188 92.007812 167.640625 91.816406 167.640625 L 87.976562 167.640625 C 87.785156 167.640625 87.683594 167.867188 87.808594 168.011719 L 89.417969 169.800781 C 89.414062 169.804688 89.414062 169.808594 89.414062 169.8125 C 89.40625 169.832031 89.402344 169.847656 89.398438 169.867188 C 89.394531 169.878906 89.390625 169.894531 89.386719 169.910156 C 89.386719 169.921875 89.382812 169.929688 89.382812 169.941406 C 89.214844 170.179688 88.179688 170.554688 87.683594 170.554688 C 87.335938 170.554688 86.976562 170.269531 86.976562 169.988281 C 86.976562 169.703125 86.746094 169.472656 86.464844 169.472656 C 86.179688 169.472656 85.949219 169.703125 85.949219 169.988281 Z M 93.921875 162.839844 C 94.683594 162.839844 95.300781 163.457031 95.300781 164.222656 C 95.300781 164.984375 94.683594 165.601562 93.921875 165.601562 C 93.15625 165.601562 92.539062 164.984375 92.539062 164.222656 C 92.539062 163.457031 93.15625 162.839844 93.921875 162.839844 Z M 85.082031 162.75 C 85.84375 162.75 86.464844 163.371094 86.464844 164.132812 C 86.464844 164.894531 85.84375 165.515625 85.082031 165.515625 C 84.320312 165.515625 83.699219 164.894531 83.699219 164.132812 C 83.699219 163.371094 84.320312 162.75 85.082031 162.75 Z M 79.648438 243.828125 C 79.648438 238.863281 75.609375 234.828125 70.648438 234.828125 L 63.742188 234.828125 L 63.742188 222.285156 C 63.742188 212.289062 55.613281 204.160156 45.617188 204.160156 C 45.332031 204.160156 45.101562 203.929688 45.101562 203.644531 C 45.101562 203.359375 45.332031 203.128906 45.617188 203.128906 C 56.179688 203.128906 64.773438 211.722656 64.773438 222.285156 L 64.773438 233.796875 L 70.648438 233.796875 C 76.179688 233.796875 80.679688 238.296875 80.679688 243.828125 C 80.679688 244.113281 80.449219 244.34375 80.164062 244.34375 C 79.878906 244.34375 79.648438 244.113281 79.648438 243.828125 Z M 99.144531 242.773438 C 99.144531 243.355469 98.820312 243.828125 98.425781 243.828125 C 98.027344 243.828125 97.703125 243.355469 97.703125 242.773438 C 97.703125 242.191406 98.027344 241.722656 98.425781 241.722656 C 98.820312 241.722656 99.144531 242.191406 99.144531 242.773438 Z M 95.925781 242.773438 C 95.925781 243.355469 95.605469 243.828125 95.207031 243.828125 C 94.808594 243.828125 94.488281 243.355469 94.488281 242.773438 C 94.488281 242.191406 94.808594 241.722656 95.207031 241.722656 C 95.605469 241.722656 95.925781 242.191406 95.925781 242.773438 Z M 92.582031 242.773438 C 92.582031 243.355469 92.261719 243.828125 91.863281 243.828125 C 91.464844 243.828125 91.144531 243.355469 91.144531 242.773438 C 91.144531 242.191406 91.464844 241.722656 91.863281 241.722656 C 92.261719 241.722656 92.582031 242.191406 92.582031 242.773438 Z M 77.75 242.773438 C 77.75 243.355469 77.425781 243.828125 77.03125 243.828125 C 76.632812 243.828125 76.308594 243.355469 76.308594 242.773438 C 76.308594 242.191406 76.632812 241.722656 77.03125 241.722656 C 77.425781 241.722656 77.75 242.191406 77.75 242.773438 Z M 74.53125 242.773438 C 74.53125 243.355469 74.210938 243.828125 73.8125 243.828125 C 73.414062 243.828125 73.09375 243.355469 73.09375 242.773438 C 73.09375 242.191406 73.414062 241.722656 73.8125 241.722656 C 74.210938 241.722656 74.53125 242.191406 74.53125 242.773438 Z M 71.1875 242.773438 C 71.1875 243.355469 70.867188 243.828125 70.46875 243.828125 C 70.070312 243.828125 69.75 243.355469 69.75 242.773438 C 69.75 242.191406 70.070312 241.722656 70.46875 241.722656 C 70.867188 241.722656 71.1875 242.191406 71.1875 242.773438 Z M 75.761719 160.453125 C 75.1875 160.210938 74.746094 159.753906 74.515625 159.175781 C 74.285156 158.597656 74.292969 157.964844 74.539062 157.394531 C 75.042969 156.210938 76.417969 155.660156 77.601562 156.167969 C 77.832031 156.265625 77.9375 156.535156 77.839844 156.765625 C 77.738281 156.996094 77.472656 157.101562 77.242188 157.003906 C 76.890625 156.851562 76.503906 156.847656 76.152344 156.988281 C 75.796875 157.128906 75.523438 157.402344 75.371094 157.75 C 75.222656 158.101562 75.21875 158.488281 75.359375 158.839844 C 75.5 159.195312 75.769531 159.46875 76.121094 159.621094 C 76.351562 159.71875 76.457031 159.984375 76.359375 160.214844 C 76.285156 160.386719 76.117188 160.492188 75.941406 160.492188 C 75.878906 160.492188 75.820312 160.480469 75.761719 160.453125 Z M 103.265625 160.335938 C 103.167969 160.105469 103.273438 159.839844 103.503906 159.738281 C 103.855469 159.589844 104.125 159.3125 104.265625 158.960938 C 104.40625 158.605469 104.402344 158.21875 104.253906 157.871094 C 104.101562 157.519531 103.824219 157.25 103.472656 157.109375 C 103.121094 156.96875 102.730469 156.972656 102.382812 157.121094 C 102.152344 157.222656 101.886719 157.113281 101.785156 156.882812 C 101.6875 156.652344 101.792969 156.386719 102.023438 156.289062 C 103.207031 155.78125 104.582031 156.328125 105.085938 157.511719 C 105.332031 158.085938 105.339844 158.71875 105.109375 159.296875 C 104.878906 159.875 104.4375 160.328125 103.863281 160.574219 C 103.804688 160.597656 103.742188 160.609375 103.683594 160.609375 C 103.507812 160.609375 103.339844 160.507812 103.265625 160.335938 Z M 100.199219 243.828125 C 100.199219 240.347656 97.859375 237.722656 94.761719 237.722656 L 94.179688 237.722656 L 94.179688 195.113281 C 94.179688 194.828125 94.410156 194.597656 94.695312 194.597656 C 94.980469 194.597656 95.210938 194.828125 95.210938 195.113281 L 95.210938 236.710938 C 98.671875 236.945312 101.226562 239.925781 101.226562 243.828125 C 101.226562 244.113281 100.996094 244.34375 100.714844 244.34375 C 100.429688 244.34375 100.199219 244.113281 100.199219 243.828125 Z M 79.722656 236.847656 C 79.503906 236.570312 74.292969 229.796875 75.796875 203.613281 C 75.8125 203.332031 76.054688 203.117188 76.339844 203.128906 C 76.625 203.144531 76.839844 203.390625 76.824219 203.671875 C 75.351562 229.328125 80.476562 236.136719 80.527344 236.199219 C 80.703125 236.421875 80.667969 236.746094 80.449219 236.921875 C 80.351562 237 80.238281 237.039062 80.125 237.039062 C 79.976562 237.039062 79.824219 236.972656 79.722656 236.847656 Z M 106.171875 242.503906 C 106.171875 243.085938 105.851562 243.558594 105.453125 243.558594 C 105.054688 243.558594 104.734375 243.085938 104.734375 242.503906 C 104.734375 241.921875 105.054688 241.449219 105.453125 241.449219 C 105.851562 241.449219 106.171875 241.921875 106.171875 242.503906 Z M 102.957031 242.503906 C 102.957031 243.085938 102.632812 243.558594 102.238281 243.558594 C 101.839844 243.558594 101.515625 243.085938 101.515625 242.503906 C 101.515625 241.921875 101.839844 241.449219 102.238281 241.449219 C 102.632812 241.449219 102.957031 241.921875 102.957031 242.503906 Z M 107.226562 243.816406 C 107.226562 240.335938 104.890625 237.453125 101.792969 237.453125 L 101.210938 237.453125 L 101.210938 222.035156 C 101.210938 221.75 101.441406 221.519531 101.726562 221.519531 C 102.007812 221.519531 102.238281 221.75 102.238281 222.035156 L 102.238281 236.4375 C 105.699219 236.675781 108.257812 239.914062 108.257812 243.816406 C 108.257812 244.101562 108.027344 244.332031 107.742188 244.332031 C 107.457031 244.332031 107.226562 244.101562 107.226562 243.816406 Z M 107.226562 243.816406 " fill-opacity="1" fill-rule="nonzero"/></g><g clip-path="url(#30f26835e0)"><path fill="#ffffff" d="M 121.800781 187.5 C 118.625 188.910156 118.925781 188.609375 117.515625 191.78125 C 116.105469 188.609375 116.40625 188.90625 113.234375 187.5 C 116.40625 186.089844 116.105469 186.390625 117.515625 183.214844 C 118.925781 186.390625 118.625 186.089844 121.800781 187.5 Z M 121.800781 187.5 " fill-opacity="1" fill-rule="nonzero"/></g><g clip-path="url(#db65150f6d)"><path fill="#ffffff" d="M 56.429688 164.957031 C 51.339844 167.21875 51.820312 166.738281 49.5625 171.824219 C 47.300781 166.738281 47.78125 167.21875 42.695312 164.957031 C 47.78125 162.699219 47.300781 163.179688 49.5625 158.09375 C 51.820312 163.179688 51.339844 162.699219 56.429688 164.957031 Z M 56.429688 164.957031 " fill-opacity="1" fill-rule="nonzero"/></g></svg>